<svg width="270" height="56" viewBox="0 0 270 56" fill="none" xmlns="http://www.w3.org/2000/svg">
<path d="M101.766 39.42L91.8384 16.4091H97.5911L106.269 36.7902H102.884L111.693 16.4091H116.986L107.026 39.42H101.766Z" fill="white"/>
<path d="M115.112 39.42L125.369 16.4091H130.628L140.918 39.42H135.329L126.914 19.1047H129.018L120.569 39.42H115.112ZM120.241 34.4891L121.654 30.4458H133.488L134.935 34.4891H120.241Z" fill="white"/>
<path d="M143.305 39.42V16.4091H148.63V35.0808H160.169V39.42H143.305Z" fill="white"/>
<path d="M173.936 39.8145C172.117 39.8145 170.429 39.5186 168.873 38.9269C167.339 38.3352 166.002 37.5024 164.863 36.4286C163.745 35.3547 162.868 34.0946 162.233 32.6482C161.619 31.2018 161.312 29.6239 161.312 27.9146C161.312 26.2052 161.619 24.6273 162.233 23.1809C162.868 21.7345 163.756 20.4744 164.896 19.4005C166.035 18.3267 167.372 17.4939 168.906 16.9022C170.44 16.3105 172.106 16.0146 173.903 16.0146C175.722 16.0146 177.387 16.3105 178.899 16.9022C180.433 17.4939 181.759 18.3267 182.877 19.4005C184.017 20.4744 184.904 21.7345 185.54 23.1809C186.175 24.6054 186.493 26.1833 186.493 27.9146C186.493 29.6239 186.175 31.2128 185.54 32.6811C184.904 34.1275 184.017 35.3876 182.877 36.4615C181.759 37.5134 180.433 38.3352 178.899 38.9269C177.387 39.5186 175.733 39.8145 173.936 39.8145ZM173.903 35.278C174.933 35.278 175.875 35.1027 176.73 34.7521C177.606 34.4014 178.373 33.8974 179.031 33.2399C179.688 32.5825 180.192 31.8045 180.543 30.906C180.916 30.0074 181.102 29.0103 181.102 27.9146C181.102 26.8188 180.916 25.8217 180.543 24.9231C180.192 24.0246 179.688 23.2466 179.031 22.5892C178.395 21.9317 177.639 21.4277 176.763 21.077C175.886 20.7264 174.933 20.5511 173.903 20.5511C172.873 20.5511 171.919 20.7264 171.043 21.077C170.188 21.4277 169.432 21.9317 168.775 22.5892C168.117 23.2466 167.602 24.0246 167.23 24.9231C166.879 25.8217 166.704 26.8188 166.704 27.9146C166.704 28.9884 166.879 29.9855 167.23 30.906C167.602 31.8045 168.106 32.5825 168.742 33.2399C169.399 33.8974 170.166 34.4014 171.043 34.7521C171.919 35.1027 172.873 35.278 173.903 35.278Z" fill="white"/>
<path d="M190.495 39.42V16.4091H200.456C202.516 16.4091 204.291 16.7488 205.781 17.4282C207.271 18.0856 208.422 19.0389 209.233 20.2881C210.043 21.5373 210.449 23.0275 210.449 24.7588C210.449 26.4682 210.043 27.9474 209.233 29.1966C208.422 30.4238 207.271 31.3662 205.781 32.0236C204.291 32.6811 202.516 33.0098 200.456 33.0098H193.454L195.821 30.6759V39.42H190.495ZM205.124 39.42L199.371 31.0703H205.058L210.876 39.42H205.124ZM195.821 31.2676L193.454 28.7692H200.16C201.803 28.7692 203.031 28.4186 203.841 27.7173C204.652 26.9941 205.058 26.0079 205.058 24.7588C205.058 23.4877 204.652 22.5015 203.841 21.8002C203.031 21.099 201.803 20.7483 200.16 20.7483H193.454L195.821 18.2171V31.2676Z" fill="white"/>
<path d="M223.978 39.42V16.4091H233.938C235.998 16.4091 237.773 16.7488 239.264 17.4282C240.754 18.0856 241.904 19.0389 242.715 20.2881C243.526 21.5373 243.932 23.0275 243.932 24.7588C243.932 26.4682 243.526 27.9474 242.715 29.1966C241.904 30.4238 240.754 31.3662 239.264 32.0236C237.773 32.6811 235.998 33.0098 233.938 33.0098H226.936L229.303 30.6759V39.42H223.978ZM238.606 39.42L232.853 31.0703H238.54L244.359 39.42H238.606ZM229.303 31.2676L226.936 28.7692H233.642C235.286 28.7692 236.513 28.4186 237.324 27.7173C238.135 26.9941 238.54 26.0079 238.54 24.7588C238.54 23.4877 238.135 22.5015 237.324 21.8002C236.513 21.099 235.286 20.7483 233.642 20.7483H226.936L229.303 18.2171V31.2676Z" fill="white"/>
<path d="M263.93 16.4091H269.255V39.42H263.93V16.4091ZM253.476 39.42H248.151V16.4091H253.476V39.42ZM264.324 29.9855H253.082V25.482H264.324V29.9855Z" fill="white"/>
<rect x="73.5839" y="4.94666" width="1.85505" height="44.8305" fill="white"/>
<path fill-rule="evenodd" clip-rule="evenodd" d="M28.3171 0.201506C28.6483 0.339976 29.3443 1.00912 33.6765 5.35367C37.2953 8.98282 38.7106 10.4487 38.8576 10.7202C39.0229 11.0251 39.0656 11.2099 39.0904 11.7264C39.1473 12.9172 40.2016 11.7531 27.5441 24.4742C19.7123 32.3453 16.295 35.7328 16.1514 35.7677C15.8248 35.8471 15.331 35.7599 15.0769 35.5779C14.948 35.4857 14.7814 35.2748 14.7066 35.1093C14.576 34.8199 14.5707 34.3703 14.5707 23.465C14.5707 12.5288 14.5756 12.111 14.7076 11.8279C14.8978 11.4197 25.799 0.48733 26.232 0.270447C26.902 -0.065008 27.6228 -0.0888697 28.3171 0.201506ZM44.0091 15.9322C44.332 16.0864 45.2475 16.9739 49.4098 21.168C54.217 26.012 54.4283 26.2362 54.5834 26.6587C54.7945 27.2335 54.7654 28.0359 54.5143 28.5729C54.38 28.8599 53.3244 29.9636 49.408 33.9122C43.8207 39.5451 44.0564 39.3454 42.9835 39.3545C41.9083 39.3635 42.1495 39.5674 36.5016 33.8755C31.73 29.0667 31.5196 28.8433 31.3645 28.4208C31.1518 27.8409 31.1813 26.9722 31.4306 26.4752C31.5473 26.2427 33.0612 24.6689 36.5366 21.1671C39.2538 18.4294 41.5904 16.1181 41.729 16.031C42.3524 15.6389 43.3085 15.5974 44.0091 15.9322ZM9.97268 17.7583C10.1082 17.8501 10.2899 18.0309 10.3765 18.1601C10.5294 18.3882 10.5355 18.4864 10.5894 21.609C10.6199 23.3769 10.6265 27.471 10.604 30.7072C10.5587 37.2233 10.5894 36.8428 10.0761 37.2365C9.72162 37.5083 9.26726 37.5517 8.85832 37.3525C8.63713 37.2448 7.32934 35.9768 4.47614 33.1036C-0.145273 28.4497 -0.00221834 28.6276 0.00106775 27.5398C0.00442687 26.4515 -0.179521 26.6798 4.48008 21.9801C6.75114 19.6896 8.70936 17.7658 8.83167 17.7051C9.1705 17.537 9.68116 17.5608 9.97268 17.7583ZM28.4421 31.6462C29.0199 31.9375 38.6293 41.5972 38.8916 42.1503C39.1447 42.6841 39.1723 43.5384 38.9556 44.1326C38.8011 44.5563 38.6015 44.7677 33.7464 49.6492C28.8912 54.5306 28.6809 54.7313 28.2596 54.8867C27.6685 55.1045 26.8189 55.0768 26.2879 54.8223C25.9976 54.6831 24.9115 53.6312 20.9822 49.6836C15.4026 44.0779 15.6311 44.3508 15.6281 43.2883C15.6249 42.1358 15.2778 42.5574 20.875 36.9155C23.6111 34.1575 25.959 31.8323 26.0925 31.7484C26.7517 31.3342 27.7382 31.2913 28.4421 31.6462Z" fill="#F44236"/>
</svg>
